<?xml version="1.0" standalone="no"?>
<!DOCTYPE svg PUBLIC "-//W3C//DTD SVG 20010904//EN"
 "http://www.w3.org/TR/2001/REC-SVG-20010904/DTD/svg10.dtd">
<svg version="1.0" xmlns="http://www.w3.org/2000/svg"
 width="700.000000pt" height="700.000000pt" viewBox="0 0 700.000000 700.000000"
 preserveAspectRatio="xMidYMid meet">
<metadata>
Created by potrace 1.11, written by Peter Selinger 2001-2013
</metadata>
<g transform="translate(0.000000,700.000000) scale(0.100000,-0.100000)"
fill="#000000" stroke="none">
<path d="M2978 4719 c-293 -292 -1083 -1079 -1755 -1750 l-1221 -1219 421 0
421 0 80 83 c139 144 345 311 511 417 39 25 72 47 75 51 10 12 219 126 340
185 114 56 173 81 370 157 52 20 210 72 255 83 307 79 486 111 730 131 173 15
603 8 725 -11 14 -2 46 -7 71 -10 25 -4 57 -9 70 -11 13 -2 40 -6 59 -9 61
-10 94 -16 140 -26 25 -6 54 -12 65 -14 119 -22 388 -104 553 -168 57 -22 106
-38 108 -35 9 8 -44 154 -87 240 -44 87 -143 236 -217 327 -25 30 -101 110
-168 177 -176 175 -336 289 -496 354 l-72 30 -70 -70 c-267 -261 -343 -331
-362 -331 -25 0 -23 -1 -221 187 -247 235 -263 251 -263 271 0 12 61 79 151
168 84 82 179 176 213 210 73 72 105 94 127 85 9 -3 84 -70 165 -147 308 -292
284 -273 383 -315 707 -296 1354 -845 1783 -1514 60 -94 171 -308 215 -415
l31 -74 441 -2 c243 -1 441 2 441 6 0 4 -19 25 -42 47 -24 22 -807 806 -1740
1742 l-1697 1701 -533 -531z"/>
<path d="M1726 2342 c-2 -4 -7 -27 -11 -52 -4 -25 -9 -52 -10 -60 -2 -8 -6
-37 -9 -65 -4 -27 -13 -88 -21 -135 -8 -47 -17 -107 -21 -135 -3 -27 -10 -71
-14 -97 -7 -45 -6 -48 15 -48 19 0 23 7 29 53 16 116 18 132 22 136 2 2 21 5
43 7 l39 2 12 -81 c16 -111 18 -117 41 -117 21 0 22 14 4 120 -2 14 -18 113
-35 220 -40 254 -38 247 -61 253 -10 3 -21 2 -23 -1z m39 -247 c3 -27 8 -62
11 -76 4 -24 2 -26 -31 -27 -32 -1 -35 1 -30 21 3 12 7 36 9 52 20 158 19 153
27 115 4 -19 11 -57 14 -85z"/>
<path d="M2048 2342 c-17 -3 -18 -24 -18 -278 0 -261 1 -275 20 -294 15 -15
33 -20 70 -20 37 0 55 5 70 20 19 19 20 33 20 294 0 232 -2 275 -15 279 -8 4
-17 2 -19 -2 -3 -4 -6 -128 -6 -275 -1 -146 -4 -267 -8 -267 -38 -6 -74 -4
-80 5 -4 6 -9 130 -12 276 -5 246 -6 265 -22 262z"/>
<path d="M2405 2340 l-30 -5 1 -280 c1 -154 2 -286 3 -292 0 -7 10 -13 21 -13
18 0 19 7 19 88 -1 164 0 169 17 169 9 0 22 -10 30 -21 12 -20 54 -177 57
-218 1 -12 9 -18 24 -18 28 0 28 -2 2 107 -12 48 -23 96 -24 105 -2 9 -8 26
-14 36 -8 15 -7 23 4 32 43 36 51 185 13 259 -20 38 -30 47 -59 51 -18 3 -47
3 -64 0z m71 -48 c23 -15 36 -56 36 -117 0 -85 -17 -119 -62 -123 -34 -3 -35
-2 -33 30 1 18 2 75 2 126 1 89 2 92 24 92 12 0 27 -4 33 -8z"/>
<path d="M2791 2339 c-56 -12 -53 10 -51 -334 1 -251 2 -255 83 -255 95 0 92
-11 92 294 0 183 -3 268 -11 276 -17 17 -75 27 -113 19z m80 -51 c7 -62 5
-467 -2 -480 -10 -19 -54 -22 -76 -5 -10 7 -13 67 -13 237 0 126 3 235 6 244
8 20 83 23 85 4z"/>
<path d="M3097 2338 c-9 -5 -12 -82 -12 -298 -1 -287 0 -291 20 -288 19 3 20
10 21 125 0 67 3 125 6 128 9 9 32 -4 45 -24 7 -11 22 -67 35 -125 21 -98 25
-106 47 -106 20 0 22 3 16 28 -4 15 -9 38 -11 52 -8 42 -37 144 -46 163 -7 13
-5 24 5 35 36 41 49 181 23 243 -8 19 -23 42 -34 52 -20 19 -94 28 -115 15z
m99 -59 c25 -28 30 -158 8 -201 -13 -24 -20 -29 -47 -26 l-31 3 -1 110 c0 61
1 116 3 123 6 19 47 14 68 -9z"/>
<path d="M4195 2342 c-59 -7 -65 -22 -65 -158 0 -142 4 -149 76 -153 27 -1 52
-7 55 -13 4 -6 6 -56 5 -110 -2 -117 -7 -123 -88 -109 -5 0 -8 35 -8 76 0 67
-2 75 -19 75 -24 0 -28 -22 -21 -109 7 -75 22 -91 89 -91 78 0 88 18 90 160 1
116 -10 159 -43 162 -42 3 -71 5 -84 6 -10 2 -12 28 -10 110 l3 107 43 3 c35
3 42 0 44 -15 0 -10 2 -22 3 -28 2 -5 3 -34 4 -62 1 -46 4 -53 21 -53 18 0 20
7 20 78 0 47 -5 85 -12 95 -16 21 -62 34 -103 29z"/>
<path d="M4500 2340 l-25 -5 0 -290 c0 -284 0 -290 20 -293 20 -3 21 2 20 115
-1 65 0 123 2 129 3 7 18 11 34 10 57 -4 94 55 98 156 2 59 -11 120 -34 152
-16 21 -76 35 -115 26z m92 -80 c22 -43 23 -128 4 -175 -13 -30 -20 -35 -48
-35 l-33 0 1 117 c1 65 2 122 3 126 1 5 13 7 29 5 19 -2 32 -13 44 -38z"/>
<path d="M4872 2342 c-5 -4 -13 -25 -16 -47 -4 -23 -8 -50 -10 -62 -6 -26 -9
-51 -41 -268 -14 -99 -28 -188 -31 -197 -4 -14 1 -18 20 -18 18 0 26 6 27 18
1 17 6 57 14 97 2 11 4 34 4 51 1 30 3 31 40 30 48 -1 48 -1 55 -51 22 -141
23 -145 48 -145 22 0 23 -16 -7 180 -8 58 -17 112 -20 120 -2 8 -7 35 -10 60
-3 25 -7 59 -10 75 -3 17 -7 46 -10 65 -14 90 -25 109 -53 92z m23 -182 c3
-25 8 -52 10 -60 2 -8 6 -36 9 -61 l6 -46 -36 0 c-31 0 -35 3 -30 21 3 12 8
41 11 66 3 25 8 54 10 65 2 11 4 31 4 44 1 36 8 22 16 -29z"/>
<path d="M5233 2342 c-60 -6 -63 -18 -63 -299 0 -240 1 -254 20 -273 15 -15
33 -20 70 -20 75 0 90 19 90 120 0 73 -2 80 -20 80 -18 0 -20 -7 -20 -69 0
-74 -7 -86 -52 -89 -18 -1 -31 5 -38 17 -11 21 -14 429 -4 469 5 18 13 22 44
22 44 0 50 -12 50 -102 0 -51 2 -57 20 -55 18 1 20 8 20 77 0 108 -22 131
-117 122z"/>
<path d="M5532 2339 c-15 -6 -17 -33 -17 -295 l0 -289 93 -3 c87 -3 92 -2 92
18 0 21 -2 22 -87 22 -47 1 -53 3 -54 22 -5 177 -3 216 11 217 8 1 37 1 63 1
43 0 48 3 45 22 -3 18 -10 21 -56 21 -29 1 -56 6 -60 12 -6 9 -7 111 -3 196 1
14 11 17 71 17 69 0 82 8 62 35 -8 11 -133 14 -160 4z"/>
<path d="M3525 2284 c-4 -31 -8 -66 -10 -78 -2 -11 -13 -84 -25 -161 -12 -77
-23 -151 -26 -165 -2 -14 -7 -49 -10 -77 -6 -49 -5 -53 15 -53 11 0 22 6 23
13 0 6 2 17 3 22 1 6 5 37 9 70 11 91 11 91 56 92 22 0 41 -2 41 -6 1 -3 3
-15 4 -26 1 -11 8 -53 15 -93 11 -66 14 -73 33 -70 12 2 21 9 19 16 -1 7 -5
32 -8 55 -3 23 -7 51 -9 62 -3 19 -52 330 -62 390 -3 17 -5 38 -5 48 1 12 -7
17 -27 17 -27 0 -29 -3 -36 -56z m42 -106 c1 -7 3 -29 6 -48 3 -19 8 -58 12
-86 l7 -51 -36 -1 c-20 -1 -35 2 -33 6 3 4 7 30 11 57 3 28 8 59 10 70 3 11 5
30 5 43 1 23 17 32 18 10z"/>
</g>
</svg>
